<?xml version="1.0" encoding="UTF-8"?><svg id="Layer_1" xmlns="http://www.w3.org/2000/svg" viewBox="0 0 600 600"><defs><style>.cls-1{fill:#61cdd8;}.cls-1,.cls-2,.cls-3,.cls-4{stroke-width:0px;}.cls-2{fill:#fff;}.cls-3{fill:#ed1c24;}.cls-4{fill:#012a4f;}</style></defs><circle class="cls-4" cx="300.41" cy="300" r="157.63"/><polygon class="cls-1" points="395.14 266.93 404.43 288.59 502.77 288.59 521.14 266.93 395.14 266.93"/><polygon class="cls-1" points="539.5 245.27 557.87 223.61 376.56 223.61 385.85 245.27 539.5 245.27"/><polygon class="cls-1" points="466.04 331.92 484.4 310.26 413.72 310.26 423.01 331.92 466.04 331.92"/><polygon class="cls-2" points="383.17 365.62 417.96 379.33 339.65 197.54 329.02 223.61 267.24 365.62 295.52 365.62 307.19 336.08 307.19 336.08 339.25 253.7 371.66 337.37 371.66 337.37 383.17 365.62"/><path class="cls-3" d="m227.68,288.59h125.39l8.09,21.66h-133.48v-21.66Z"/><path class="cls-2" d="m182.38,379.33l66.78-155.72,39.25-26.07-72.08,168.08-33.95,13.71Z"/><polygon class="cls-1" points="214.12 245.27 223.41 223.61 42.13 223.61 60.49 245.27 214.12 245.27"/><polygon class="cls-1" points="78.86 266.93 97.22 288.59 195.54 288.59 204.83 266.93 78.86 266.93"/><polygon class="cls-1" points="176.96 331.92 186.25 310.26 115.58 310.26 133.94 331.92 176.96 331.92"/></svg>